               Bolona Tumi Amar 2010 - XviD - Mp3 - 1Cd - [DxR]

=-=-=-=-=-=-=-=-=-=-=-=-=-=-=-=-=-=-=-=-=-=-=-=-=-=-=-=-=-=-=-=-=-=-=-=-=-=-=-=-=-

General
Complete name                    : [DxR] Bolona Tumi Amar 2010 XviD 1Cd Mp3 -=K4K=-.avi
Format                           : AVI
Format/Info                      : Audio Video Interleave
File size                        : 697 MiB
Duration                         : 2h 35mn
Overall bit rate                 : 627 Kbps
Writing application              : VirtualDubMod 1.5.4.1 (build 2178/release)
Writing library                  : VirtualDubMod build 2178/release

Video
ID                               : 0
Format                           : MPEG-4 Visual
Format profile                   : Advanced Simple@L5
Format settings, BVOP            : Yes
Format settings, QPel            : No
Format settings, GMC             : No warppoints
Format settings, Matrix          : Custom
Codec ID                         : XVID
Codec ID/Hint                    : XviD
Duration                         : 2h 35mn
Bit rate                         : 526 Kbps
Width                            : 608 pixels
Height                           : 320 pixels
Display aspect ratio             : 1.900
Frame rate                       : 25.000 fps
Resolution                       : 8 bits
Colorimetry                      : 4:2:0
Scan type                        : Progressive
Bits/(Pixel*Frame)               : 0.108
Stream size                      : 584 MiB (84%)
Writing library                  : XviD 1.2.1 (UTC 2008-12-04)

Audio
ID                               : 1
Format                           : MPEG Audio
Format version                   : Version 1
Format profile                   : Layer 3
Format_Settings_Mode             : Joint stereo
Codec ID                         : 55
Codec ID/Hint                    : MP3
Duration                         : 2h 35mn
Bit rate mode                    : Variable
Bit rate                         : 91.5 Kbps
Nominal bit rate                 : 96.0 Kbps
Channel(s)                       : 2 channels
Sampling rate                    : 32.0 KHz
Stream size                      : 102 MiB (15%)
Alignment                        : Aligned on interleaves
Interleave, duration             : 36 ms (0.90 video frame)
Interleave, preload duration     : 623 ms
Writing library                  : LAME3.97 
Encoding settings                : -m j -V 4 -q 2 -lowpass 15.1 --abr 96

=-=-=-=-=-=-=-=-=-=-=-=-=-=-=-=-=-=-=-=-=-=-=-=-=-=-=-=-=-=-=-=-=-=-=-=-=-=-=-=-=

 
http://img299.imageshack.us/img299/921/vlcsnap2010082010h40m39.png
 
http://img85.imageshack.us/img85/3567/vlcsnap2010082010h41m04.png
 
http://img190.imageshack.us/img190/6480/vlcsnap2010082010h42m07.png
 
http://img807.imageshack.us/img807/4959/vlcsnap2010082010h42m25.png
 
http://img833.imageshack.us/img833/9869/vlcsnap2010082010h42m45.png
 
http://img826.imageshack.us/img826/7396/vlcsnap2010082010h43m25.png
 
http://img225.imageshack.us/img225/2744/vlcsnap2010082010h43m30.png